
<svg xmlns="http://www.w3.org/2000/svg"
     width="600"
     height="460"
     viewBox="0 0 600 460">

<defs>

<linearGradient id="bg"
x1="0%"
y1="0%"
x2="100%"
y2="100%">

<stop offset="0%" stop-color="#0D1117"/>
<stop offset="100%" stop-color="#161B22"/>

</linearGradient>

</defs>

<rect
width="600"
height="460"
fill="url(#bg)"/>

<rect
x="20"
y="20"
width="560"
height="420"
rx="18"
fill="#161B22"
stroke="#30363D"
stroke-width="2"/>

<text
x="40"
y="55"
fill="#FFFFFF"
font-size="28"
font-family="Segoe UI"
font-weight="bold">

Achievements

</text>



<rect
x="40"
y="60"
width="520"
height="45"
rx="10"
fill="#238636"
stroke="#2EA043"
stroke-width="2"/>

<text
x="60"
y="90"
fill="#FFFFFF"
font-size="18"
font-family="Segoe UI"
font-weight="600">

🚀 First Project

</text>

<text
x="470"
y="90"
fill="#FFFFFF"
font-size="15"
font-family="Segoe UI">

Unlocked

</text>



<rect
x="40"
y="120"
width="520"
height="45"
rx="10"
fill="#238636"
stroke="#2EA043"
stroke-width="2"/>

<text
x="60"
y="150"
fill="#FFFFFF"
font-size="18"
font-family="Segoe UI"
font-weight="600">

⚛ React Explorer

</text>

<text
x="470"
y="150"
fill="#FFFFFF"
font-size="15"
font-family="Segoe UI">

Unlocked

</text>



<rect
x="40"
y="180"
width="520"
height="45"
rx="10"
fill="#238636"
stroke="#2EA043"
stroke-width="2"/>

<text
x="60"
y="210"
fill="#FFFFFF"
font-size="18"
font-family="Segoe UI"
font-weight="600">

🟢 Node Adventurer

</text>

<text
x="470"
y="210"
fill="#FFFFFF"
font-size="15"
font-family="Segoe UI">

Unlocked

</text>



<rect
x="40"
y="240"
width="520"
height="45"
rx="10"
fill="#21262D"
stroke="#30363D"
stroke-width="2"/>

<text
x="60"
y="270"
fill="#8B949E"
font-size="18"
font-family="Segoe UI"
font-weight="600">

🐳 Docker Explorer

</text>

<text
x="470"
y="270"
fill="#8B949E"
font-size="15"
font-family="Segoe UI">

Locked

</text>



<rect
x="40"
y="300"
width="520"
height="45"
rx="10"
fill="#21262D"
stroke="#30363D"
stroke-width="2"/>

<text
x="60"
y="330"
fill="#8B949E"
font-size="18"
font-family="Segoe UI"
font-weight="600">

☁ Cloud Learner

</text>

<text
x="470"
y="330"
fill="#8B949E"
font-size="15"
font-family="Segoe UI">

Locked

</text>



<rect
x="40"
y="360"
width="520"
height="45"
rx="10"
fill="#21262D"
stroke="#30363D"
stroke-width="2"/>

<text
x="60"
y="390"
fill="#8B949E"
font-size="18"
font-family="Segoe UI"
font-weight="600">

🤖 AI Explorer

</text>

<text
x="470"
y="390"
fill="#8B949E"
font-size="15"
font-family="Segoe UI">

Locked

</text>



</svg>
