
<svg
xmlns="http://www.w3.org/2000/svg"
width="1200"
height="320">

<defs>

<linearGradient
id="bg"
x1="0%"
y1="0%"
x2="100%"
y2="100%">

<stop
offset="0%"
stop-color="#0D1117"/>

<stop
offset="100%"
stop-color="#161B22"/>

</linearGradient>

</defs>

<rect
width="1200"
height="320"
fill="url(#bg)"/>

<rect
x="40"
y="30"
width="1120"
height="250"
rx="24"
fill="#161B22"
stroke="#30363D"
stroke-width="2"/>

<text
x="70"
y="75"
fill="white"
font-size="28"
font-family="Segoe UI"
font-weight="bold">

Developer Journey

</text>

<line
x1="120"
y1="170"
x2="1100"
y2="170"
stroke="#30363D"
stroke-width="8"/>


<circle
cx="120"
cy="170"
r="16"
fill="#E34F26"
stroke="#FFFFFF"
stroke-width="2"/>

<circle
cx="260"
cy="170"
r="16"
fill="#1572B6"
stroke="#FFFFFF"
stroke-width="2"/>

<circle
cx="400"
cy="170"
r="16"
fill="#F7DF1E"
stroke="#FFFFFF"
stroke-width="2"/>

<circle
cx="540"
cy="170"
r="16"
fill="#61DAFB"
stroke="#FFFFFF"
stroke-width="2"/>

<circle
cx="680"
cy="170"
r="16"
fill="#30363D"
stroke="#FFFFFF"
stroke-width="2"/>

<circle
cx="820"
cy="170"
r="16"
fill="#30363D"
stroke="#FFFFFF"
stroke-width="2"/>

<circle
cx="960"
cy="170"
r="16"
fill="#30363D"
stroke="#FFFFFF"
stroke-width="2"/>

<circle
cx="1100"
cy="170"
r="16"
fill="#30363D"
stroke="#FFFFFF"
stroke-width="2"/>


<image
href="./avatar.png"
x="510"
y="100"
width="60"
height="60"/>


<text
x="65"
y="220"
fill="#C9D1D9"
font-size="15"
font-family="Segoe UI">

🏠 HTML Village

</text>

<text
x="205"
y="220"
fill="#C9D1D9"
font-size="15"
font-family="Segoe UI">

🌳 CSS Forest

</text>

<text
x="345"
y="220"
fill="#C9D1D9"
font-size="15"
font-family="Segoe UI">

🏙 JavaScript City

</text>

<text
x="485"
y="220"
fill="#C9D1D9"
font-size="15"
font-family="Segoe UI">

⛩ React Temple

</text>

<text
x="625"
y="220"
fill="#C9D1D9"
font-size="15"
font-family="Segoe UI">

🏰 Node Kingdom

</text>

<text
x="765"
y="220"
fill="#C9D1D9"
font-size="15"
font-family="Segoe UI">

🚢 Docker Harbor

</text>

<text
x="905"
y="220"
fill="#C9D1D9"
font-size="15"
font-family="Segoe UI">

☁ Cloud Summit

</text>

<text
x="1045"
y="220"
fill="#C9D1D9"
font-size="15"
font-family="Segoe UI">

🤖 AI Citadel

</text>

</svg>
