
<svg xmlns="http://www.w3.org/2000/svg"
     width="560"
     height="470"
     viewBox="0 0 560 470">

<defs>

<linearGradient id="bg"
x1="0%"
y1="0%"
x2="100%"
y2="100%">

<stop offset="0%" stop-color="#0D1117"/>

<stop offset="100%" stop-color="#161B22"/>

</linearGradient>

<linearGradient id="skillBar"
x1="0%"
y1="0%"
x2="100%"
y2="0%">

<stop offset="0%" stop-color="#58A6FF"/>

<stop offset="100%" stop-color="#2EA043"/>

</linearGradient>

</defs>

<rect
width="560"
height="470"
fill="url(#bg)"/>

<rect
x="20"
y="20"
width="520"
height="430"
rx="18"
fill="#161B22"
stroke="#30363D"
stroke-width="2"/>

<text
x="40"
y="55"
fill="#FFFFFF"
font-size="28"
font-family="Segoe UI"
font-weight="bold">

Skills Dashboard

</text>



<text
x="70"
y="95"
fill="#FFFFFF"
font-size="18"
font-family="Segoe UI"
font-weight="600">

HTML

</text>

<rect
x="220"
y="81"
width="220"
height="12"
rx="6"
fill="#30363D"/>

<rect
x="220"
y="81"
width="200"
height="12"
rx="6"
fill="#58A6FF"/>

<text
x="460"
y="93"
fill="#8B949E"
font-size="14"
font-family="Segoe UI">

5/5

</text>



<text
x="70"
y="137"
fill="#FFFFFF"
font-size="18"
font-family="Segoe UI"
font-weight="600">

CSS

</text>

<rect
x="220"
y="123"
width="220"
height="12"
rx="6"
fill="#30363D"/>

<rect
x="220"
y="123"
width="200"
height="12"
rx="6"
fill="#58A6FF"/>

<text
x="460"
y="135"
fill="#8B949E"
font-size="14"
font-family="Segoe UI">

5/5

</text>



<text
x="70"
y="179"
fill="#FFFFFF"
font-size="18"
font-family="Segoe UI"
font-weight="600">

JavaScript

</text>

<rect
x="220"
y="165"
width="220"
height="12"
rx="6"
fill="#30363D"/>

<rect
x="220"
y="165"
width="200"
height="12"
rx="6"
fill="#58A6FF"/>

<text
x="460"
y="177"
fill="#8B949E"
font-size="14"
font-family="Segoe UI">

5/5

</text>



<text
x="70"
y="221"
fill="#FFFFFF"
font-size="18"
font-family="Segoe UI"
font-weight="600">

React

</text>

<rect
x="220"
y="207"
width="220"
height="12"
rx="6"
fill="#30363D"/>

<rect
x="220"
y="207"
width="160"
height="12"
rx="6"
fill="#58A6FF"/>

<text
x="460"
y="219"
fill="#8B949E"
font-size="14"
font-family="Segoe UI">

4/5

</text>



<text
x="70"
y="263"
fill="#FFFFFF"
font-size="18"
font-family="Segoe UI"
font-weight="600">

Node.js

</text>

<rect
x="220"
y="249"
width="220"
height="12"
rx="6"
fill="#30363D"/>

<rect
x="220"
y="249"
width="160"
height="12"
rx="6"
fill="#58A6FF"/>

<text
x="460"
y="261"
fill="#8B949E"
font-size="14"
font-family="Segoe UI">

4/5

</text>



<text
x="70"
y="305"
fill="#FFFFFF"
font-size="18"
font-family="Segoe UI"
font-weight="600">

MongoDB

</text>

<rect
x="220"
y="291"
width="220"
height="12"
rx="6"
fill="#30363D"/>

<rect
x="220"
y="291"
width="160"
height="12"
rx="6"
fill="#58A6FF"/>

<text
x="460"
y="303"
fill="#8B949E"
font-size="14"
font-family="Segoe UI">

4/5

</text>



<text
x="70"
y="347"
fill="#FFFFFF"
font-size="18"
font-family="Segoe UI"
font-weight="600">

Docker

</text>

<rect
x="220"
y="333"
width="220"
height="12"
rx="6"
fill="#30363D"/>

<rect
x="220"
y="333"
width="120"
height="12"
rx="6"
fill="#58A6FF"/>

<text
x="460"
y="345"
fill="#8B949E"
font-size="14"
font-family="Segoe UI">

3/5

</text>



<text
x="70"
y="389"
fill="#FFFFFF"
font-size="18"
font-family="Segoe UI"
font-weight="600">

AWS

</text>

<rect
x="220"
y="375"
width="220"
height="12"
rx="6"
fill="#30363D"/>

<rect
x="220"
y="375"
width="80"
height="12"
rx="6"
fill="#58A6FF"/>

<text
x="460"
y="387"
fill="#8B949E"
font-size="14"
font-family="Segoe UI">

2/5

</text>



<text
x="70"
y="431"
fill="#FFFFFF"
font-size="18"
font-family="Segoe UI"
font-weight="600">

AI

</text>

<rect
x="220"
y="417"
width="220"
height="12"
rx="6"
fill="#30363D"/>

<rect
x="220"
y="417"
width="80"
height="12"
rx="6"
fill="#58A6FF"/>

<text
x="460"
y="429"
fill="#8B949E"
font-size="14"
font-family="Segoe UI">

2/5

</text>



</svg>
